<svg width="240" height="56" viewBox="0 0 240 56" fill="none" xmlns="http://www.w3.org/2000/svg">
<mask id="mask0_660_1763" style="mask-type:luminance" maskUnits="userSpaceOnUse" x="0" y="0" width="51" height="51">
<path d="M0 0.00683594H51V50.1611H0V0.00683594Z" fill="white"/>
</mask>
<g mask="url(#mask0_660_1763)">
<path d="M18.5231 0.0485185C22.9785 0.0485185 27.4339 0.0278929 31.8893 0.0485185C40.6041 0.0897723 47.9989 6.18502 49.5665 14.8277C51.0001 22.7484 46.6994 31.2158 38.8199 34.547C36.3241 35.6093 33.7354 36.0115 31.0436 35.9703C29.249 35.9393 28.8778 36.259 28.4137 38.0226C27.6401 40.9207 26.8873 43.8085 26.1034 46.6962C25.4537 49.058 23.4426 50.1616 21.3077 49.3777C19.6266 48.7589 18.6881 47.1191 19.1522 45.3142C20.4104 40.405 21.7202 35.5062 23.0403 30.6176C23.3807 29.3387 24.1954 28.8127 25.7012 28.7921C27.7536 28.7715 29.806 28.8127 31.8583 28.7818C36.9738 28.6993 41.2126 25.3577 42.3987 20.5001C43.8426 14.5802 40.0472 8.56743 34.0964 7.40201C33.1166 7.20605 32.0956 7.1648 31.0848 7.15448C22.37 7.14417 13.6448 7.1648 4.92993 7.15448C4.30081 7.15448 3.66137 7.11323 3.05288 6.99978C1.14489 6.63881 9.99495e-05 5.20524 0.123861 3.37976C0.247623 1.50271 1.70182 0.0794595 3.64075 0.0485185C6.79666 0.00726468 9.96289 0.0278936 13.1188 0.0175781C14.9237 0.0175781 16.7182 0.0175781 18.5231 0.0175781C18.5231 0.0278936 18.5231 0.0382057 18.5231 0.0485185Z" fill="white"/>
</g>
<path d="M23.2156 14.392C26.0312 14.392 28.8365 14.3611 31.652 14.4023C34.4779 14.4436 36.2312 16.8672 35.2308 19.3115C34.5811 20.8998 33.2816 21.5186 31.683 21.5289C28.1145 21.5598 24.5358 21.5392 20.9673 21.5495C18.4818 21.5495 17.8836 22.0446 17.2338 24.5198C14.7174 33.9876 12.2009 43.4553 9.66377 52.9127C8.90058 55.7902 6.11594 56.8834 3.96043 55.192C2.63 54.1503 2.34122 52.7374 2.76407 51.1491C4.14608 45.9202 5.53839 40.6913 6.93071 35.4727C8.56023 29.3259 10.1898 23.1791 11.8193 17.0322C12.3762 14.9592 13.1394 14.3817 15.2537 14.3817C17.9145 14.3817 20.5651 14.3817 23.2156 14.3817C23.2156 14.392 23.2156 14.392 23.2156 14.392Z" fill="#FC6435"/>
<path d="M62.856 10.92H71.352L83.064 45H75L72.36 37.368H61.752L59.16 45H51.096L62.856 10.92ZM71.064 31.944L67.08 18.84L63 31.944H71.064ZM106.446 20.904C106.35 20.744 106.014 20.504 105.438 20.184C104.862 19.832 104.142 19.464 103.278 19.08C102.414 18.696 101.47 18.36 100.446 18.072C99.4224 17.784 98.3984 17.64 97.3744 17.64C96.0304 17.64 94.9904 17.88 94.2544 18.36C93.5184 18.808 93.1504 19.512 93.1504 20.472C93.1504 21.24 93.4224 21.848 93.9664 22.296C94.5424 22.744 95.3584 23.144 96.4144 23.496C97.4704 23.816 98.7664 24.2 100.302 24.648C102.478 25.224 104.366 25.928 105.966 26.76C107.566 27.56 108.782 28.6 109.614 29.88C110.478 31.16 110.91 32.856 110.91 34.968C110.91 36.888 110.558 38.52 109.854 39.864C109.15 41.176 108.19 42.248 106.974 43.08C105.79 43.88 104.43 44.472 102.894 44.856C101.358 45.208 99.7744 45.384 98.1424 45.384C96.4784 45.384 94.7664 45.224 93.0064 44.904C91.2784 44.552 89.6144 44.072 88.0144 43.464C86.4144 42.824 84.9424 42.056 83.5984 41.16L87.0544 34.296C87.1824 34.456 87.5984 34.76 88.3024 35.208C89.0064 35.624 89.8704 36.072 90.8944 36.552C91.9504 37 93.1184 37.4 94.3984 37.752C95.6784 38.104 96.9744 38.28 98.2864 38.28C99.6944 38.28 100.734 38.056 101.406 37.608C102.11 37.16 102.462 36.536 102.462 35.736C102.462 34.872 102.094 34.2 101.358 33.72C100.654 33.24 99.6784 32.808 98.4304 32.424C97.2144 32.04 95.8064 31.608 94.2064 31.128C92.1264 30.488 90.3984 29.768 89.0224 28.968C87.6784 28.168 86.6704 27.192 85.9984 26.04C85.3584 24.888 85.0384 23.448 85.0384 21.72C85.0384 19.32 85.5984 17.304 86.7184 15.672C87.8704 14.008 89.4064 12.76 91.3264 11.928C93.2464 11.064 95.3424 10.632 97.6144 10.632C99.2144 10.632 100.75 10.824 102.222 11.208C103.726 11.592 105.118 12.072 106.398 12.648C107.71 13.224 108.878 13.8 109.902 14.376L106.446 20.904ZM135.978 20.904C135.882 20.744 135.546 20.504 134.97 20.184C134.394 19.832 133.674 19.464 132.81 19.08C131.946 18.696 131.002 18.36 129.978 18.072C128.954 17.784 127.93 17.64 126.906 17.64C125.562 17.64 124.522 17.88 123.786 18.36C123.05 18.808 122.682 19.512 122.682 20.472C122.682 21.24 122.954 21.848 123.498 22.296C124.074 22.744 124.89 23.144 125.946 23.496C127.002 23.816 128.298 24.2 129.834 24.648C132.01 25.224 133.898 25.928 135.498 26.76C137.098 27.56 138.314 28.6 139.146 29.88C140.01 31.16 140.442 32.856 140.442 34.968C140.442 36.888 140.09 38.52 139.386 39.864C138.682 41.176 137.722 42.248 136.506 43.08C135.322 43.88 133.962 44.472 132.426 44.856C130.89 45.208 129.306 45.384 127.674 45.384C126.01 45.384 124.298 45.224 122.538 44.904C120.81 44.552 119.146 44.072 117.546 43.464C115.946 42.824 114.474 42.056 113.13 41.16L116.586 34.296C116.714 34.456 117.13 34.76 117.834 35.208C118.538 35.624 119.402 36.072 120.426 36.552C121.482 37 122.65 37.4 123.93 37.752C125.21 38.104 126.506 38.28 127.818 38.28C129.226 38.28 130.266 38.056 130.938 37.608C131.642 37.16 131.994 36.536 131.994 35.736C131.994 34.872 131.626 34.2 130.89 33.72C130.186 33.24 129.21 32.808 127.962 32.424C126.746 32.04 125.338 31.608 123.738 31.128C121.658 30.488 119.93 29.768 118.554 28.968C117.21 28.168 116.202 27.192 115.53 26.04C114.89 24.888 114.57 23.448 114.57 21.72C114.57 19.32 115.13 17.304 116.25 15.672C117.402 14.008 118.938 12.76 120.858 11.928C122.778 11.064 124.874 10.632 127.146 10.632C128.746 10.632 130.282 10.824 131.754 11.208C133.258 11.592 134.65 12.072 135.93 12.648C137.242 13.224 138.41 13.8 139.434 14.376L135.978 20.904ZM145.061 45V10.92H159.605C161.237 10.92 162.725 11.256 164.069 11.928C165.445 12.568 166.629 13.448 167.621 14.568C168.613 15.656 169.381 16.888 169.925 18.264C170.469 19.64 170.741 21.048 170.741 22.488C170.741 24.44 170.277 26.296 169.349 28.056C168.453 29.816 167.189 31.256 165.557 32.376C163.957 33.464 162.053 34.008 159.845 34.008H152.933V45H145.061ZM152.933 27.144H159.365C159.973 27.144 160.533 26.968 161.045 26.616C161.557 26.264 161.973 25.736 162.293 25.032C162.613 24.328 162.773 23.464 162.773 22.44C162.773 21.384 162.581 20.52 162.197 19.848C161.845 19.144 161.381 18.632 160.805 18.312C160.261 17.992 159.685 17.832 159.077 17.832H152.933V27.144ZM174.967 45V10.92H190.327C191.927 10.92 193.399 11.256 194.743 11.928C196.119 12.568 197.303 13.448 198.295 14.568C199.287 15.656 200.055 16.888 200.599 18.264C201.175 19.64 201.463 21.032 201.463 22.44C201.463 23.848 201.239 25.192 200.791 26.472C200.343 27.72 199.703 28.856 198.871 29.88C198.039 30.872 197.047 31.688 195.895 32.328L203.383 45H194.695L188.167 34.008H182.839V45H174.967ZM182.839 27.144H190.039C190.679 27.144 191.239 26.952 191.719 26.568C192.231 26.152 192.647 25.592 192.967 24.888C193.287 24.184 193.447 23.368 193.447 22.44C193.447 21.512 193.255 20.712 192.871 20.04C192.519 19.336 192.071 18.792 191.527 18.408C190.983 18.024 190.407 17.832 189.799 17.832H182.839V27.144ZM221.723 45.288C219.163 45.288 216.843 44.808 214.763 43.848C212.715 42.856 210.939 41.544 209.435 39.912C207.963 38.248 206.827 36.392 206.027 34.344C205.227 32.264 204.827 30.12 204.827 27.912C204.827 25.64 205.243 23.48 206.075 21.432C206.939 19.384 208.123 17.56 209.627 15.96C211.163 14.328 212.971 13.048 215.051 12.12C217.131 11.192 219.403 10.728 221.867 10.728C224.395 10.728 226.683 11.224 228.731 12.216C230.811 13.176 232.587 14.488 234.059 16.152C235.563 17.816 236.715 19.688 237.515 21.768C238.315 23.816 238.715 25.912 238.715 28.056C238.715 30.328 238.299 32.488 237.467 34.536C236.635 36.584 235.451 38.424 233.915 40.056C232.379 41.656 230.571 42.936 228.491 43.896C226.443 44.824 224.187 45.288 221.723 45.288ZM212.843 28.008C212.843 29.32 213.035 30.6 213.419 31.848C213.803 33.064 214.363 34.152 215.099 35.112C215.867 36.072 216.811 36.84 217.931 37.416C219.051 37.992 220.331 38.28 221.771 38.28C223.275 38.28 224.587 37.992 225.707 37.416C226.827 36.808 227.755 36.008 228.491 35.016C229.227 34.024 229.771 32.92 230.123 31.704C230.507 30.456 230.699 29.192 230.699 27.912C230.699 26.6 230.507 25.336 230.123 24.12C229.739 22.904 229.163 21.816 228.395 20.856C227.627 19.864 226.683 19.096 225.563 18.552C224.443 18.008 223.179 17.736 221.771 17.736C220.267 17.736 218.955 18.024 217.835 18.6C216.747 19.176 215.819 19.96 215.051 20.952C214.315 21.912 213.755 23.016 213.371 24.264C213.019 25.48 212.843 26.728 212.843 28.008Z" fill="#FC6435"/>
</svg>
