<svg width="70" height="81" viewBox="0 0 70 81" fill="none" xmlns="http://www.w3.org/2000/svg">
<path d="M34.2373 75.3795L35.0298 75.7064L35.8131 75.3579L35.8203 75.3547C40.8107 73.2894 45.5205 70.6015 49.838 67.3549L49.8441 67.3503C57.5555 61.5051 65 52.6929 65 40.5V17.237V15.8185L63.6613 15.3495L35.6613 5.53982L35 5.30814L34.3387 5.53982L6.33872 15.3495L5 15.8185V17.237V40.5C5 52.6934 12.4451 61.4982 20.1544 67.3527L20.1622 67.3586C24.4963 70.6169 29.2257 73.312 34.2373 75.3795ZM47.4312 64.16C43.5885 67.0493 39.4144 69.4664 34.9986 71.3604C30.5843 69.4676 26.4114 67.0519 22.5696 64.1642C15.3146 58.6536 9 50.8881 9 40.5V18.6555L35 9.54653L61 18.6555V40.5C61 50.8888 54.6845 58.6612 47.4312 64.16ZM30.0888 53.8745L31.5037 55.2905L32.9184 53.8743L57.6669 29.1014L59.0795 27.6873L57.6664 26.2738L52.7139 21.3199L51.299 19.9046L49.8846 21.3204L31.5005 39.7227L23.0209 31.2287L21.606 29.8114L20.1906 31.2282L15.2381 36.1856L13.8258 37.5993L15.2383 39.0128L30.0888 53.8745ZM38.017 79.8442C37.9981 79.7921 37.9566 79.6758 37.8679 79.424L35 0L70 12.2621V40.5C70 54.9588 61.1345 65.0663 52.864 71.341C48.2857 74.7837 43.2992 77.6422 38.0199 79.8522C38.0191 79.8499 38.0181 79.8472 38.017 79.8442ZM2 13.6806L35 2.11919L68 13.6806V40.5C68 54.0524 59.7043 63.6399 51.6588 69.7448C47.2451 73.0634 42.4409 75.8228 37.3558 77.9619L36.8884 76.6275C36.8882 76.6271 36.8881 76.6267 36.888 76.6263L36.8875 76.6251L33.112 77.9464C33.1424 78.0331 33.1719 78.1175 33.2007 78.1998C33.1613 78.1838 33.122 78.1677 33.0827 78.1516C27.8326 75.9842 22.8785 73.1586 18.3392 69.7425C10.3032 63.6442 2 54.0563 2 40.5035V13.6806Z" stroke="#FC6435" stroke-width="4"/>
</svg>
