<svg width="34" height="34" viewBox="0 0 34 34" fill="none" xmlns="http://www.w3.org/2000/svg">
<circle cx="17" cy="17" r="17" fill="#8F8F8F"/>
<path d="M25.75 27C26.0815 27 26.3995 26.8796 26.6339 26.6653C26.8683 26.4509 27 26.1602 27 25.8571V24.4331C27.005 21.2263 22.0325 18.7143 17 18.7143C11.9675 18.7143 7 21.2263 7 24.4331V25.8571C7 26.1602 7.1317 26.4509 7.36612 26.6653C7.60054 26.8796 7.91848 27 8.25 27H25.75ZM21.505 11.1189C21.505 11.6598 21.3885 12.1954 21.1621 12.6951C20.9357 13.1948 20.6038 13.6489 20.1855 14.0313C19.7672 14.4138 19.2706 14.7172 18.724 14.9242C18.1774 15.1312 17.5916 15.2377 17 15.2377C16.4084 15.2377 15.8226 15.1312 15.276 14.9242C14.7294 14.7172 14.2328 14.4138 13.8145 14.0313C13.3962 13.6489 13.0643 13.1948 12.8379 12.6951C12.6115 12.1954 12.495 11.6598 12.495 11.1189C12.495 10.0265 12.9696 8.97882 13.8145 8.20639C14.6593 7.43395 15.8052 7 17 7C18.1948 7 19.3407 7.43395 20.1855 8.20639C21.0304 8.97882 21.505 10.0265 21.505 11.1189Z" stroke="white" stroke-width="1.5" stroke-linecap="round" stroke-linejoin="round"/>
</svg>
