<svg width="73" height="73" viewBox="0 0 73 73" fill="none" xmlns="http://www.w3.org/2000/svg">
<path fill-rule="evenodd" clip-rule="evenodd" d="M47.642 11.4777C42.2498 9.07507 36.2255 8.47986 30.4674 9.78082C24.7093 11.0818 19.5261 14.2092 15.6906 18.6967C11.8552 23.1841 9.57308 28.7912 9.18467 34.6816C8.79626 40.572 10.3223 46.4302 13.5353 51.3824C16.7483 56.3346 21.4761 60.1156 27.0134 62.1613C32.5508 64.2071 38.6012 64.4081 44.2621 62.7343C49.9231 61.0606 54.8913 57.6017 58.4259 52.8737C61.9605 48.1456 63.872 42.4016 63.8753 36.4984V33.7018C63.8753 32.022 65.2371 30.6602 66.917 30.6602C68.5969 30.6602 69.9587 32.022 69.9587 33.7018V36.5002C69.9546 43.7152 67.6183 50.7373 63.2982 56.5161C58.9782 62.2948 52.9059 66.5223 45.987 68.568C39.068 70.6137 31.6732 70.3681 24.9052 67.8677C18.1373 65.3673 12.359 60.7461 8.432 54.6934C4.50501 48.6407 2.63979 41.4807 3.11452 34.2813C3.58924 27.0819 6.37848 20.2289 11.0662 14.7442C15.754 9.25952 22.0891 5.43711 29.1267 3.84705C36.1644 2.25699 43.5275 2.98447 50.1179 5.92098C51.6523 6.60469 52.342 8.40285 51.6583 9.93728C50.9746 11.4717 49.1764 12.1614 47.642 11.4777Z" fill="#FC6435"/>
<path fill-rule="evenodd" clip-rule="evenodd" d="M69.067 10.0148C70.2555 11.2021 70.2564 13.1279 69.0692 14.3164L38.6525 44.7635C38.0822 45.3344 37.3084 45.6552 36.5014 45.6554C35.6944 45.6556 34.9205 45.3351 34.3499 44.7645L25.2249 35.6395C24.037 34.4517 24.037 32.5258 25.2249 31.338C26.4127 30.1501 28.3386 30.1501 29.5264 31.338L36.4996 38.3111L64.7655 10.017C65.9527 8.82852 67.8786 8.82756 69.067 10.0148Z" fill="#FC6435"/>
</svg>
