<svg width="60" height="60" viewBox="0 0 60 60" fill="none" xmlns="http://www.w3.org/2000/svg">
<circle cx="30" cy="30" r="30" fill="#FFF6F2"/>
<path fill-rule="evenodd" clip-rule="evenodd" d="M32.8001 17.1877C33.7777 16.2297 35.0938 15.6962 36.4625 15.7032C37.8312 15.7102 39.1418 16.257 40.1095 17.2249C41.0773 18.1928 41.6239 19.5036 41.6306 20.8723C41.6374 22.241 41.1036 23.557 40.1455 24.5344L30.0201 34.6597C29.4495 35.2304 29.1001 35.5797 28.7135 35.8824C28.2556 36.2391 27.7602 36.5449 27.2361 36.7944C26.7908 37.0064 26.3228 37.1624 25.5575 37.417L21.9948 38.605L21.1388 38.8904C20.7633 39.0158 20.3602 39.0342 19.9748 38.9433C19.5895 38.8525 19.237 38.6561 18.9571 38.3761C18.6771 38.0961 18.4807 37.7437 18.3898 37.3583C18.299 36.9729 18.3173 36.5699 18.4428 36.1944L19.9161 31.7757C20.1708 31.0104 20.3268 30.5424 20.5388 30.097C20.7888 29.5734 21.0951 29.0784 21.4521 28.621C21.7548 28.233 22.1028 27.8837 22.6735 27.3144L32.8001 17.1877ZM21.9468 36.513L20.8215 35.385L21.7921 32.4717C22.0748 31.6237 22.1921 31.2784 22.3441 30.9584C22.5326 30.5646 22.7606 30.1957 23.0281 29.8517C23.2468 29.5717 23.5028 29.313 24.1348 28.6797L31.9895 20.8264C32.3976 21.846 33.0097 22.7716 33.7881 23.5464C34.563 24.3244 35.4886 24.936 36.5081 25.3437L28.6535 33.197C28.0201 33.8304 27.7628 34.0864 27.4828 34.3037C27.1379 34.5721 26.769 34.8006 26.3761 34.989C26.0561 35.141 25.7095 35.2584 24.8615 35.541L21.9468 36.513ZM38.1015 23.749C37.896 23.7037 37.6934 23.6463 37.4948 23.577C36.6301 23.2765 35.8456 22.7821 35.2015 22.1317C34.5525 21.4863 34.0583 20.7022 33.7561 19.8384C33.6864 19.6397 33.6286 19.4372 33.5828 19.2317L34.2135 18.6024C34.8158 18.0195 35.6231 17.6966 36.4613 17.7035C37.2995 17.7104 38.1014 18.0464 38.6941 18.6391C39.2868 19.2318 39.6228 20.0337 39.6296 20.8719C39.6365 21.7101 39.3137 22.5174 38.7308 23.1197L38.1015 23.749ZM18.3335 43.333C18.3335 43.0678 18.4388 42.8135 18.6264 42.6259C18.8139 42.4384 19.0682 42.333 19.3335 42.333H40.6668V44.333H19.3335C19.0682 44.333 18.8139 44.2277 18.6264 44.0401C18.4388 43.8526 18.3335 43.5982 18.3335 43.333Z" fill="#FC6435"/>
</svg>
