<svg width="32" height="32" viewBox="0 0 32 32" fill="none" xmlns="http://www.w3.org/2000/svg">
<g clip-path="url(#clip0_663_1902)">
<path d="M28.665 5.33301H25.7761V7.11079H28.4428V26.6663H3.55389V7.11079H6.22055V5.33301H3.33166C3.12387 5.33648 2.9188 5.38085 2.72817 5.46359C2.53753 5.54633 2.36506 5.66582 2.22061 5.81522C2.07615 5.96463 1.96255 6.14103 1.88628 6.33434C1.81001 6.52766 1.77258 6.73411 1.77611 6.9419V26.8352C1.77258 27.043 1.81001 27.2495 1.88628 27.4428C1.96255 27.6361 2.07615 27.8125 2.22061 27.9619C2.36506 28.1113 2.53753 28.2308 2.72817 28.3135C2.9188 28.3963 3.12387 28.4406 3.33166 28.4441H28.665C28.8728 28.4406 29.0779 28.3963 29.2685 28.3135C29.4591 28.2308 29.6316 28.1113 29.7761 27.9619C29.9205 27.8125 30.0341 27.6361 30.1104 27.4428C30.1866 27.2495 30.2241 27.043 30.2206 26.8352V6.9419C30.2241 6.73411 30.1866 6.52766 30.1104 6.33434C30.0341 6.14103 29.9205 5.96463 29.7761 5.81522C29.6316 5.66582 29.4591 5.54633 29.2685 5.46359C29.0779 5.38085 28.8728 5.33648 28.665 5.33301Z" fill="#D9D9D9"/>
<path d="M7.10938 12.4443H8.88715V14.2221H7.10938V12.4443Z" fill="#D9D9D9"/>
<path d="M12.4429 12.4443H14.2206V14.2221H12.4429V12.4443Z" fill="#D9D9D9"/>
<path d="M17.7759 12.4443H19.5537V14.2221H17.7759V12.4443Z" fill="#D9D9D9"/>
<path d="M23.1094 12.4443H24.8872V14.2221H23.1094V12.4443Z" fill="#D9D9D9"/>
<path d="M7.10938 16.8887H8.88715V18.6664H7.10938V16.8887Z" fill="#D9D9D9"/>
<path d="M12.4429 16.8887H14.2206V18.6664H12.4429V16.8887Z" fill="#D9D9D9"/>
<path d="M17.7759 16.8887H19.5537V18.6664H17.7759V16.8887Z" fill="#D9D9D9"/>
<path d="M23.1094 16.8887H24.8872V18.6664H23.1094V16.8887Z" fill="#D9D9D9"/>
<path d="M7.10938 21.333H8.88715V23.1108H7.10938V21.333Z" fill="#D9D9D9"/>
<path d="M12.4429 21.333H14.2206V23.1108H12.4429V21.333Z" fill="#D9D9D9"/>
<path d="M17.7759 21.333H19.5537V23.1108H17.7759V21.333Z" fill="#D9D9D9"/>
<path d="M23.1094 21.333H24.8872V23.1108H23.1094V21.333Z" fill="#D9D9D9"/>
<path d="M8.88889 8.88943C9.12464 8.88943 9.35073 8.79578 9.51743 8.62908C9.68413 8.46238 9.77778 8.23629 9.77778 8.00054V2.66721C9.77778 2.43146 9.68413 2.20537 9.51743 2.03867C9.35073 1.87197 9.12464 1.77832 8.88889 1.77832C8.65314 1.77832 8.42705 1.87197 8.26035 2.03867C8.09365 2.20537 8 2.43146 8 2.66721V8.00054C8 8.23629 8.09365 8.46238 8.26035 8.62908C8.42705 8.79578 8.65314 8.88943 8.88889 8.88943Z" fill="#D9D9D9"/>
<path d="M23.113 8.88943C23.3488 8.88943 23.5749 8.79578 23.7416 8.62908C23.9082 8.46238 24.0019 8.23629 24.0019 8.00054V2.66721C24.0019 2.43146 23.9082 2.20537 23.7416 2.03867C23.5749 1.87197 23.3488 1.77832 23.113 1.77832C22.8773 1.77832 22.6512 1.87197 22.4845 2.03867C22.3178 2.20537 22.2241 2.43146 22.2241 2.66721V8.00054C22.2241 8.23629 22.3178 8.46238 22.4845 8.62908C22.6512 8.79578 22.8773 8.88943 23.113 8.88943Z" fill="#D9D9D9"/>
<path d="M11.5571 5.33301H20.446V7.11079H11.5571V5.33301Z" fill="#D9D9D9"/>
</g>
<defs>
<clipPath id="clip0_663_1902">
<rect width="32" height="32" fill="white"/>
</clipPath>
</defs>
</svg>
