<svg width="61" height="60" viewBox="0 0 61 60" fill="none" xmlns="http://www.w3.org/2000/svg">
<circle cx="30.5" cy="30" r="30" fill="#FFF6F2"/>
<path d="M44 37.5V24H23V37.5H44ZM44 16.5C44.7956 16.5 45.5587 16.8161 46.1213 17.3787C46.6839 17.9413 47 18.7044 47 19.5V37.5C47 38.2956 46.6839 39.0587 46.1213 39.6213C45.5587 40.1839 44.7956 40.5 44 40.5H23C22.2044 40.5 21.4413 40.1839 20.8787 39.6213C20.3161 39.0587 20 38.2956 20 37.5V19.5C20 18.7044 20.3161 17.9413 20.8787 17.3787C21.4413 16.8161 22.2044 16.5 23 16.5H24.5V13.5H27.5V16.5H39.5V13.5H42.5V16.5H44ZM38.795 28.59L32.135 35.25L28.115 31.23L29.705 29.64L32.135 32.07L37.205 27L38.795 28.59ZM17 43.5H38V46.5H17C16.2044 46.5 15.4413 46.1839 14.8787 45.6213C14.3161 45.0587 14 44.2956 14 43.5V25.5H17V43.5Z" fill="#FC6435"/>
</svg>
