<svg width="28" height="28" viewBox="0 0 28 28" fill="none" xmlns="http://www.w3.org/2000/svg">
<path d="M15.3688 0.667969C16.8688 0.671969 17.6302 0.679969 18.2875 0.698635L18.5462 0.707969C18.8448 0.718635 19.1395 0.731969 19.4955 0.747969C20.9142 0.814635 21.8822 1.03864 22.7315 1.36797C23.6115 1.70664 24.3528 2.1653 25.0942 2.9053C25.7722 3.57183 26.2968 4.37809 26.6315 5.26797C26.9608 6.1173 27.1848 7.0853 27.2515 8.5053C27.2675 8.85997 27.2808 9.15464 27.2915 9.45464L27.2995 9.7133C27.3195 10.3693 27.3275 11.1306 27.3302 12.6306L27.3315 13.6253V15.372C27.3348 16.3445 27.3245 17.317 27.3008 18.2893L27.2928 18.548C27.2822 18.848 27.2688 19.1426 27.2528 19.4973C27.1862 20.9173 26.9595 21.884 26.6315 22.7346C26.2977 23.625 25.773 24.4315 25.0942 25.0973C24.4274 25.7751 23.6212 26.2996 22.7315 26.6346C21.8822 26.964 20.9142 27.188 19.4955 27.2546C19.1791 27.2695 18.8627 27.2829 18.5462 27.2946L18.2875 27.3026C17.6302 27.3213 16.8688 27.3306 15.3688 27.3333L14.3742 27.3346H12.6288C11.6558 27.338 10.6829 27.3278 9.71017 27.304L9.4515 27.296C9.13498 27.284 8.81853 27.2702 8.50216 27.2546C7.0835 27.188 6.1155 26.964 5.26483 26.6346C4.37506 26.3005 3.56912 25.7758 2.9035 25.0973C2.22489 24.431 1.6998 23.6247 1.36483 22.7346C1.0355 21.8853 0.811498 20.9173 0.744832 19.4973C0.729977 19.1809 0.716643 18.8645 0.704832 18.548L0.698165 18.2893C0.673595 17.3171 0.662482 16.3445 0.664832 15.372V12.6306C0.661111 11.6581 0.670889 10.6856 0.694165 9.7133L0.703499 9.45464C0.714165 9.15464 0.727499 8.85997 0.743499 8.5053C0.810165 7.0853 1.03417 6.11864 1.3635 5.26797C1.69832 4.37717 2.22446 3.57067 2.90483 2.9053C3.57029 2.22727 4.37569 1.70262 5.26483 1.36797C6.1155 1.03864 7.08216 0.814635 8.50216 0.747969C8.85683 0.731969 9.15283 0.718635 9.4515 0.707969L9.71017 0.699969C10.6824 0.676279 11.655 0.666056 12.6275 0.669302L15.3688 0.667969ZM13.9982 7.33464C12.2301 7.33464 10.5344 8.03701 9.28412 9.28726C8.03388 10.5375 7.3315 12.2332 7.3315 14.0013C7.3315 15.7694 8.03388 17.4651 9.28412 18.7153C10.5344 19.9656 12.2301 20.668 13.9982 20.668C15.7663 20.668 17.462 19.9656 18.7122 18.7153C19.9625 17.4651 20.6648 15.7694 20.6648 14.0013C20.6648 12.2332 19.9625 10.5375 18.7122 9.28726C17.462 8.03701 15.7663 7.33464 13.9982 7.33464ZM13.9982 10.0013C14.5235 10.0012 15.0436 10.1046 15.5289 10.3055C16.0143 10.5065 16.4553 10.801 16.8268 11.1724C17.1983 11.5438 17.493 11.9847 17.6941 12.47C17.8952 12.9552 17.9987 13.4753 17.9988 14.0006C17.9989 14.5259 17.8955 15.0461 17.6946 15.5314C17.4937 16.0168 17.1991 16.4578 16.8277 16.8293C16.4564 17.2008 16.0154 17.4955 15.5302 17.6966C15.0449 17.8977 14.5248 18.0012 13.9995 18.0013C12.9386 18.0013 11.9212 17.5799 11.1711 16.8297C10.4209 16.0796 9.9995 15.0622 9.9995 14.0013C9.9995 12.9404 10.4209 11.923 11.1711 11.1729C11.9212 10.4227 12.9386 10.0013 13.9995 10.0013M20.9995 5.33464C20.5575 5.33464 20.1335 5.51023 19.821 5.82279C19.5084 6.13535 19.3328 6.55927 19.3328 7.0013C19.3328 7.44333 19.5084 7.86725 19.821 8.17981C20.1335 8.49237 20.5575 8.66797 20.9995 8.66797C21.4415 8.66797 21.8654 8.49237 22.178 8.17981C22.4906 7.86725 22.6662 7.44333 22.6662 7.0013C22.6662 6.55927 22.4906 6.13535 22.178 5.82279C21.8654 5.51023 21.4415 5.33464 20.9995 5.33464Z" fill="#FC6435"/>
</svg>
