<svg width="24" height="28" viewBox="0 0 24 28" fill="none" xmlns="http://www.w3.org/2000/svg">
<path d="M3.79121 4.09085C5.96847 1.9136 8.92145 0.69043 12.0005 0.69043C15.0796 0.69043 18.0326 1.9136 20.2099 4.09085C22.3871 6.2681 23.6103 9.22108 23.6103 12.3002C23.6103 15.3793 22.3871 18.3323 20.2099 20.5095L18.6272 22.0748C17.4605 23.2188 15.9472 24.6908 14.0859 26.4908C13.5264 27.0318 12.7787 27.3341 12.0005 27.3341C11.2224 27.3341 10.4746 27.0318 9.91521 26.4908L5.26055 21.9628C4.67388 21.3882 4.18588 20.9042 3.79121 20.5095C2.7131 19.4315 1.85789 18.1516 1.27441 16.7431C0.690937 15.3345 0.390625 13.8248 0.390625 12.3002C0.390625 10.7756 0.690937 9.26585 1.27441 7.85729C1.85789 6.44872 2.7131 5.16888 3.79121 4.09085ZM18.7952 5.50418C17.9028 4.6118 16.8433 3.90395 15.6772 3.42103C14.5112 2.93812 13.2615 2.68959 11.9994 2.68966C10.7373 2.68972 9.48764 2.93836 8.32166 3.42139C7.15568 3.90443 6.09626 4.61238 5.20388 5.50485C4.31151 6.39731 3.60365 7.4568 3.12073 8.62283C2.63782 9.78885 2.3893 11.0386 2.38936 12.3007C2.38942 13.5627 2.63806 14.8124 3.1211 15.9784C3.60413 17.1444 4.31208 18.2038 5.20455 19.0962L7.18855 21.0535C8.27921 22.1215 9.65255 23.4548 11.3059 25.0535C11.4923 25.2336 11.7414 25.3342 12.0005 25.3342C12.2597 25.3342 12.5088 25.2336 12.6952 25.0535L17.2219 20.6535C17.8485 20.0388 18.3725 19.5202 18.7952 19.0962C20.5972 17.2941 21.6096 14.85 21.6096 12.3015C21.6096 9.75304 20.5972 7.30893 18.7952 5.50685M12.0005 8.66551C12.5262 8.66551 13.0467 8.76904 13.5323 8.9702C14.0179 9.17135 14.4592 9.46619 14.8309 9.83787C15.2025 10.2095 15.4974 10.6508 15.6985 11.1364C15.8997 11.6221 16.0032 12.1425 16.0032 12.6682C16.0032 13.1938 15.8997 13.7143 15.6985 14.1999C15.4974 14.6856 15.2025 15.1268 14.8309 15.4985C14.4592 15.8702 14.0179 16.165 13.5323 16.3662C13.0467 16.5673 12.5262 16.6708 12.0005 16.6708C10.9518 16.6517 9.95247 16.2216 9.21757 15.4732C8.48267 14.7248 8.07093 13.7178 8.07093 12.6688C8.07093 11.6199 8.48267 10.6129 9.21757 9.86448C9.95247 9.11604 10.9518 8.68599 12.0005 8.66685M12.0005 10.6668C11.4694 10.6668 10.96 10.8778 10.5844 11.2534C10.2089 11.629 9.99788 12.1384 9.99788 12.6695C9.99788 13.2007 10.2089 13.71 10.5844 14.0856C10.96 14.4612 11.4694 14.6722 12.0005 14.6722C12.5226 14.6587 13.0187 14.4419 13.3831 14.0679C13.7476 13.6939 13.9515 13.1924 13.9515 12.6702C13.9515 12.148 13.7476 11.6464 13.3831 11.2725C13.0187 10.8985 12.5226 10.6817 12.0005 10.6682" fill="#D9D9D9"/>
</svg>
