<svg width="60" height="60" viewBox="0 0 60 60" fill="none" xmlns="http://www.w3.org/2000/svg">
<circle cx="30" cy="30" r="30" fill="#FFF6F2"/>
<path d="M28.875 34.5H22.125C21.2299 34.5 20.3714 34.8556 19.7385 35.4885C19.1056 36.1215 18.75 36.9799 18.75 37.875V40.125H21V37.875C21 37.5766 21.1185 37.2905 21.3295 37.0795C21.5405 36.8685 21.8266 36.75 22.125 36.75H28.875C29.1734 36.75 29.4595 36.8685 29.6705 37.0795C29.8815 37.2905 30 37.5766 30 37.875V40.125H32.25V37.875C32.25 36.9799 31.8944 36.1215 31.2615 35.4885C30.6286 34.8556 29.7701 34.5 28.875 34.5ZM25.5 33.375C26.39 33.375 27.26 33.1111 28.0001 32.6166C28.7401 32.1221 29.3169 31.4193 29.6575 30.5971C29.9981 29.7748 30.0872 28.87 29.9135 27.9971C29.7399 27.1242 29.3113 26.3224 28.682 25.693C28.0526 25.0637 27.2508 24.6351 26.3779 24.4615C25.505 24.2878 24.6002 24.3769 23.7779 24.7175C22.9557 25.0581 22.2529 25.6349 21.7584 26.3749C21.2639 27.115 21 27.985 21 28.875C21 30.0685 21.4741 31.2131 22.318 32.057C23.1619 32.9009 24.3065 33.375 25.5 33.375ZM25.5 26.625C25.945 26.625 26.38 26.757 26.75 27.0042C27.12 27.2514 27.4084 27.6028 27.5787 28.014C27.749 28.4251 27.7936 28.8775 27.7068 29.314C27.62 29.7504 27.4057 30.1513 27.091 30.466C26.7763 30.7807 26.3754 30.995 25.939 31.0818C25.5025 31.1686 25.0501 31.124 24.639 30.9537C24.2278 30.7834 23.8764 30.495 23.6292 30.125C23.382 29.755 23.25 29.32 23.25 28.875C23.25 28.2783 23.4871 27.706 23.909 27.284C24.331 26.8621 24.9033 26.625 25.5 26.625Z" fill="#FC6435"/>
<path d="M43.5 33.375V43.5H16.5V21H30V18.75H16.5C15.9033 18.75 15.331 18.9871 14.909 19.409C14.4871 19.831 14.25 20.4033 14.25 21V43.5C14.25 44.0967 14.4871 44.669 14.909 45.091C15.331 45.5129 15.9033 45.75 16.5 45.75H43.5C44.0967 45.75 44.669 45.5129 45.091 45.091C45.5129 44.669 45.75 44.0967 45.75 43.5V33.375H43.5Z" fill="#FC6435"/>
<path d="M34.5 33.375H41.25V35.625H34.5V33.375ZM36.75 37.875H41.25V40.125H36.75V37.875ZM48 23.25V21H45.6364C45.4904 20.296 45.2109 19.6266 44.8129 19.0279L46.4891 17.3516L44.8984 15.7609L43.2221 17.4371C42.6234 17.0391 41.954 16.7596 41.25 16.6136V14.25H39V16.6136C38.296 16.7596 37.6266 17.0391 37.0279 17.4371L35.3516 15.7609L33.7609 17.3516L35.4371 19.0279C35.0391 19.6266 34.7596 20.296 34.6136 21H32.25V23.25H34.6136C34.7596 23.954 35.0391 24.6234 35.4371 25.2221L33.7609 26.8984L35.3516 28.4891L37.0279 26.8129C37.6266 27.2109 38.296 27.4904 39 27.6364V30H41.25V27.6364C41.954 27.4904 42.6234 27.2109 43.2221 26.8129L44.8984 28.4891L46.4891 26.8984L44.8129 25.2221C45.2109 24.6234 45.4904 23.954 45.6364 23.25H48ZM40.125 25.5C39.4575 25.5 38.805 25.3021 38.25 24.9312C37.6949 24.5604 37.2624 24.0333 37.0069 23.4166C36.7515 22.7999 36.6846 22.1213 36.8148 21.4666C36.9451 20.8119 37.2665 20.2105 37.7385 19.7385C38.2105 19.2665 38.8119 18.9451 39.4666 18.8148C40.1213 18.6846 40.7999 18.7515 41.4166 19.0069C42.0333 19.2624 42.5604 19.6949 42.9312 20.25C43.3021 20.805 43.5 21.4575 43.5 22.125C43.4991 23.0198 43.1432 23.8778 42.5105 24.5105C41.8778 25.1432 41.0198 25.4991 40.125 25.5Z" fill="#FC6435"/>
</svg>
