<svg width="60" height="60" viewBox="0 0 60 60" fill="none" xmlns="http://www.w3.org/2000/svg">
<circle cx="30" cy="30" r="30" fill="#FFF6F2"/>
<path d="M20.125 28.458H26.375M30.5415 29.4995L31.677 30.8015L33.667 28.1975M21.1665 24.291H26.375V34.708H21.1665C21.0297 34.708 20.8942 34.6811 20.7678 34.6287C20.6414 34.5763 20.5266 34.4996 20.4299 34.4028C20.3332 34.306 20.2564 34.1912 20.2041 34.0647C20.1518 33.9383 20.1249 33.8028 20.125 33.666V25.333C20.125 25.0567 20.2347 24.7918 20.43 24.5964C20.6253 24.401 20.8902 24.2911 21.1665 24.291Z" stroke="#164473" stroke-linecap="round" stroke-linejoin="round"/>
<path d="M38.875 37.8335V21.1665C38.875 20.8903 38.7653 20.6254 38.57 20.43C38.3746 20.2347 38.1097 20.125 37.8335 20.125H27.4165C27.1403 20.125 26.8754 20.2347 26.68 20.43C26.4847 20.6254 26.375 20.8903 26.375 21.1665V37.8335C26.375 38.1097 26.4847 38.3746 26.68 38.57C26.8754 38.7653 27.1403 38.875 27.4165 38.875H37.8335C38.1097 38.875 38.3746 38.7653 38.57 38.57C38.7653 38.3746 38.875 38.1097 38.875 37.8335ZM31.0625 22.2085H34.1875L34.7085 20.125H30.5415L31.0625 22.2085Z" stroke="#FC6435" stroke-linecap="round" stroke-linejoin="round"/>
</svg>
