<svg width="18" height="18" viewBox="0 0 18 18" fill="none" xmlns="http://www.w3.org/2000/svg">
<path d="M10.7516 1.22015C11.275 0.873481 12.1616 0.625981 12.8308 1.29515L16.7033 5.16848C17.375 5.83848 17.1266 6.72515 16.7791 7.24765C16.591 7.53096 16.3461 7.77216 16.06 7.95598C15.7816 8.13348 15.43 8.26765 15.0508 8.24765C14.8674 8.23465 14.6845 8.21492 14.5025 8.18848L14.4458 8.18015C14.2503 8.15212 14.0537 8.13183 13.8566 8.11931C13.4366 8.09848 13.275 8.16931 13.2233 8.21931L11.1483 10.2951C11.0816 10.3618 10.9983 10.5101 10.935 10.7951C10.8741 11.0701 10.8475 11.4085 10.8408 11.7835C10.835 12.1435 10.8475 12.5118 10.8608 12.8668L10.8616 12.906C10.8741 13.2585 10.8866 13.6185 10.8691 13.901C10.815 14.7601 10.1458 15.3926 9.48746 15.6851C8.82913 15.9768 7.88997 16.0493 7.23747 15.396L5.36247 13.521L1.94163 16.9418C1.88441 17.0032 1.81541 17.0525 1.73875 17.0866C1.66208 17.1208 1.57932 17.1392 1.4954 17.1406C1.41148 17.1421 1.32812 17.1267 1.2503 17.0952C1.17248 17.0638 1.10178 17.017 1.04243 16.9577C0.983084 16.8983 0.936297 16.8276 0.904863 16.7498C0.873429 16.672 0.857992 16.5886 0.859472 16.5047C0.860953 16.4208 0.879321 16.338 0.913481 16.2614C0.947641 16.1847 0.996893 16.1157 1.0583 16.0585L4.4783 12.6376L2.6033 10.7626C1.9508 10.1093 2.02247 9.17098 2.31497 8.51265C2.60663 7.85431 3.23997 7.18515 4.0983 7.13098C4.38163 7.11348 4.74163 7.12598 5.09413 7.13848L5.1333 7.13931C5.4883 7.15181 5.85663 7.16515 6.21663 7.15931C6.59163 7.15265 6.92997 7.12598 7.20496 7.06515C7.48996 7.00181 7.6383 6.91765 7.70497 6.85098L9.77996 4.77598C9.8308 4.72515 9.90163 4.56265 9.87996 4.14265C9.86745 3.94553 9.84716 3.74899 9.81913 3.55348L9.81163 3.49681C9.78519 3.31482 9.76546 3.13192 9.75247 2.94848C9.73163 2.56931 9.8658 2.21765 10.0425 1.93931C10.2225 1.65598 10.4716 1.40598 10.7516 1.22015Z" fill="#164473"/>
</svg>
