<svg width="20" height="19" viewBox="0 0 20 19" fill="none" xmlns="http://www.w3.org/2000/svg">
<ellipse cx="10" cy="9.5" rx="10" ry="9" fill="#FC6435"/>
<path d="M14.375 15.5C14.5408 15.5 14.6997 15.4338 14.8169 15.3159C14.9342 15.198 15 15.0381 15 14.8714V14.0882C15.0025 12.3245 12.5162 10.9429 10 10.9429C7.48375 10.9429 5 12.3245 5 14.0882V14.8714C5 15.0381 5.06585 15.198 5.18306 15.3159C5.30027 15.4338 5.45924 15.5 5.625 15.5H14.375ZM12.2525 6.76537C12.2525 7.06286 12.1942 7.35744 12.081 7.63229C11.9678 7.90714 11.8019 8.15687 11.5928 8.36723C11.3836 8.57759 11.1353 8.74446 10.862 8.8583C10.5887 8.97215 10.2958 9.03074 10 9.03074C9.7042 9.03074 9.41129 8.97215 9.138 8.8583C8.86472 8.74446 8.6164 8.57759 8.40724 8.36723C8.19808 8.15687 8.03216 7.90714 7.91896 7.63229C7.80576 7.35744 7.7475 7.06286 7.7475 6.76537C7.7475 6.16456 7.98482 5.58835 8.40724 5.16351C8.82967 4.73867 9.4026 4.5 10 4.5C10.5974 4.5 11.1703 4.73867 11.5928 5.16351C12.0152 5.58835 12.2525 6.16456 12.2525 6.76537Z" stroke="white" stroke-width="1.5" stroke-linecap="round" stroke-linejoin="round"/>
</svg>
