<svg width="60" height="60" viewBox="0 0 60 60" fill="none" xmlns="http://www.w3.org/2000/svg">
<circle cx="30" cy="30" r="30" fill="#FFF6F2"/>
<path d="M37.1236 15H43.9546L44.1046 15.021L44.2531 15.063L44.3431 15.102C44.4631 15.154 44.5726 15.229 44.6716 15.327L44.7316 15.393L44.7976 15.4785L44.8786 15.6135L44.9371 15.7485L44.9656 15.8445L44.9866 15.9405L45.0001 16.083V22.881C45 23.166 44.8918 23.4404 44.6972 23.6487C44.5026 23.857 44.2362 23.9836 43.9518 24.003C43.6674 24.0225 43.3863 23.9332 43.1652 23.7534C42.9441 23.5735 42.7995 23.3164 42.7606 23.034L42.7501 22.881V18.8385L33.0901 28.4985C32.8996 28.689 32.6471 28.8049 32.3784 28.825C32.1098 28.8451 31.8428 28.7681 31.6261 28.608L31.5001 28.5L26.9551 24.135L18.4201 32.6685C18.2194 32.8698 17.9499 32.9876 17.6658 32.9983C17.3817 33.009 17.1041 32.9117 16.8889 32.7261C16.6736 32.5404 16.5366 32.2802 16.5053 31.9976C16.4741 31.7151 16.551 31.4312 16.7206 31.203L16.8301 31.077L26.1601 21.747C26.3508 21.5567 26.6034 21.4411 26.8721 21.4213C27.1407 21.4015 27.4076 21.4787 27.6241 21.639L27.7501 21.747L32.2951 26.112L41.1571 17.25H37.1221C36.8505 17.2496 36.5882 17.151 36.3837 16.9724C36.1791 16.7937 36.0461 16.5471 36.0091 16.278L35.9986 16.125C35.9986 15.8531 36.0971 15.5905 36.2758 15.3856C36.4545 15.1807 36.7013 15.0475 36.9706 15.0105L37.1236 15ZM17.6251 37.5C17.9235 37.5 18.2096 37.6185 18.4206 37.8295C18.6316 38.0405 18.7501 38.3266 18.7501 38.625V43.875C18.7501 44.1734 18.6316 44.4595 18.4206 44.6705C18.2096 44.8815 17.9235 45 17.6251 45C17.3268 45 17.0406 44.8815 16.8296 44.6705C16.6187 44.4595 16.5001 44.1734 16.5001 43.875V38.625C16.5001 38.3266 16.6187 38.0405 16.8296 37.8295C17.0406 37.6185 17.3268 37.5 17.6251 37.5ZM26.2501 32.625C26.2501 32.3266 26.1316 32.0405 25.9206 31.8295C25.7096 31.6185 25.4235 31.5 25.1251 31.5C24.8268 31.5 24.5406 31.6185 24.3296 31.8295C24.1187 32.0405 24.0001 32.3266 24.0001 32.625V43.875C24.0001 44.1734 24.1187 44.4595 24.3296 44.6705C24.5406 44.8815 24.8268 45 25.1251 45C25.4235 45 25.7096 44.8815 25.9206 44.6705C26.1316 44.4595 26.2501 44.1734 26.2501 43.875V32.625ZM32.6251 34.5C32.9235 34.5 33.2096 34.6185 33.4206 34.8295C33.6316 35.0405 33.7501 35.3266 33.7501 35.625V43.875C33.7501 44.1734 33.6316 44.4595 33.4206 44.6705C33.2096 44.8815 32.9235 45 32.6251 45C32.3268 45 32.0406 44.8815 31.8296 44.6705C31.6187 44.4595 31.5001 44.1734 31.5001 43.875V35.625C31.5001 35.3266 31.6187 35.0405 31.8296 34.8295C32.0406 34.6185 32.3268 34.5 32.6251 34.5ZM41.2501 28.125C41.2501 27.8266 41.1316 27.5405 40.9206 27.3295C40.7096 27.1185 40.4235 27 40.1251 27C39.8268 27 39.5406 27.1185 39.3296 27.3295C39.1187 27.5405 39.0001 27.8266 39.0001 28.125V43.875C39.0001 44.1734 39.1187 44.4595 39.3296 44.6705C39.5406 44.8815 39.8268 45 40.1251 45C40.4235 45 40.7096 44.8815 40.9206 44.6705C41.1316 44.4595 41.2501 44.1734 41.2501 43.875V28.125Z" fill="#FC6435"/>
</svg>
