<svg width="26" height="26" viewBox="0 0 26 26" fill="none" xmlns="http://www.w3.org/2000/svg">
<path fill-rule="evenodd" clip-rule="evenodd" d="M19.4259 17.2445C21.0885 15.1009 21.8721 12.4045 21.6172 9.70375C21.3623 7.00299 20.0881 4.50076 18.0538 2.70614C16.0195 0.911511 13.3779 -0.0407095 10.6665 0.0431947C7.95499 0.127099 5.37733 1.24083 3.45788 3.1578C1.53675 5.0761 0.419381 7.65476 0.333472 10.3683C0.247563 13.0818 1.19958 15.726 2.99551 17.762C4.79145 19.7979 7.29614 21.0725 9.99917 21.3259C12.7022 21.5793 15.4002 20.7925 17.5432 19.1258L17.6005 19.1858L23.2565 24.8431C23.3804 24.967 23.5275 25.0653 23.6893 25.1323C23.8512 25.1994 24.0247 25.2339 24.1999 25.2339C24.3751 25.2339 24.5485 25.1994 24.7104 25.1323C24.8723 25.0653 25.0193 24.967 25.1432 24.8431C25.2671 24.7192 25.3654 24.5722 25.4324 24.4103C25.4994 24.2485 25.534 24.075 25.534 23.8998C25.534 23.7246 25.4994 23.5511 25.4324 23.3893C25.3654 23.2274 25.2671 23.0803 25.1432 22.9565L19.4859 17.3005C19.4664 17.2812 19.4464 17.2626 19.4259 17.2445ZM16.6579 5.04446C17.4107 5.7851 18.0094 6.66746 18.4195 7.64065C18.8296 8.61383 19.0429 9.65858 19.0472 10.7146C19.0515 11.7707 18.8467 12.8171 18.4445 13.7936C18.0424 14.7701 17.4509 15.6573 16.7041 16.4041C15.9574 17.1508 15.0702 17.7423 14.0937 18.1445C13.1172 18.5466 12.0707 18.7514 11.0147 18.7471C9.95865 18.7428 8.91391 18.5295 7.94072 18.1194C6.96754 17.7093 6.08518 17.1106 5.34454 16.3578C3.86443 14.8534 3.03875 12.8251 3.04734 10.7146C3.05594 8.6042 3.89811 6.58266 5.39042 5.09034C6.88273 3.59803 8.90427 2.75586 11.0147 2.74727C13.1251 2.73867 15.1535 3.56436 16.6579 5.04446Z" fill="#D9D9D9"/>
</svg>
