<svg width="34" height="34" viewBox="0 0 34 34" fill="none" xmlns="http://www.w3.org/2000/svg">
<circle cx="17" cy="17" r="17" fill="#FC6435"/>
<path d="M16.7551 11.8416L16.0181 11.1045M18.7203 13.8067L18.2288 13.3157M20.6855 15.7724L20.1944 15.2809M22.8967 17.9831L22.1596 17.246" stroke="white" stroke-width="1.5" stroke-miterlimit="10" stroke-linecap="round"/>
<path d="M21.913 12.0893C21.5416 11.7177 21.3241 11.2197 21.3041 10.6948C21.2841 10.1699 21.4629 9.65673 21.8049 9.25799C21.8332 9.22483 21.8479 9.1822 21.8461 9.13865C21.8443 9.0951 21.8261 9.05385 21.7951 9.02317L19.825 7.05084C19.7925 7.01829 19.7483 7 19.7022 7C19.6562 7 19.612 7.01829 19.5795 7.05084L16.4393 10.191C16.3234 10.3068 16.2361 10.4481 16.1844 10.6035C16.1328 10.7593 16.0456 10.901 15.9298 11.0172C15.8139 11.1334 15.6726 11.2211 15.517 11.2732C15.3614 11.325 15.22 11.4123 15.104 11.5281L7.05084 19.5795C7.01829 19.612 7 19.6562 7 19.7022C7 19.7483 7.01829 19.7925 7.05084 19.825L9.02094 21.7951C9.05162 21.8261 9.09287 21.8443 9.13642 21.8461C9.17997 21.8479 9.2226 21.8332 9.25576 21.8049C9.65441 21.4626 10.1677 21.2834 10.6928 21.3033C11.2179 21.3232 11.7161 21.5408 12.0877 21.9123C12.4592 22.2839 12.6768 22.7821 12.6967 23.3072C12.7166 23.8323 12.5374 24.3456 12.1951 24.7442C12.1668 24.7774 12.1521 24.82 12.1539 24.8636C12.1557 24.9071 12.1739 24.9484 12.2049 24.9791L14.175 26.9492C14.2075 26.9817 14.2517 27 14.2978 27C14.3438 27 14.388 26.9817 14.4205 26.9492L22.4741 18.896C22.59 18.78 22.6772 18.6386 22.729 18.483C22.7806 18.3272 22.8678 18.1856 22.9837 18.0694C23.0995 17.9531 23.2408 17.8655 23.3965 17.8134C23.5519 17.7617 23.6932 17.6744 23.809 17.5585L26.9492 14.4183C26.9817 14.3857 27 14.3416 27 14.2955C27 14.2495 26.9817 14.2053 26.9492 14.1728L24.9791 12.2027C24.9484 12.1717 24.9071 12.1535 24.8636 12.1517C24.82 12.1498 24.7774 12.1645 24.7442 12.1928C24.3461 12.5354 23.8332 12.7151 23.3083 12.6959C22.7834 12.6767 22.2851 12.46 21.913 12.0893Z" stroke="white" stroke-width="1.5" stroke-miterlimit="10"/>
</svg>
