<svg width="20" height="20" viewBox="0 0 20 20" fill="none" xmlns="http://www.w3.org/2000/svg">
<circle cx="10" cy="10" r="10" fill="#8F8F8F"/>
<path d="M9.85544 6.26911L9.42188 5.87891M11.0114 7.30951L10.7223 7.04953M12.1674 8.35014L11.8786 8.08992M13.4681 9.52052L13.0346 9.13032" stroke="white" stroke-miterlimit="10" stroke-linecap="round"/>
<path d="M12.8895 6.40037C12.6711 6.20368 12.5431 5.94003 12.5314 5.66212C12.5196 5.38422 12.6248 5.11256 12.826 4.90146C12.8426 4.88391 12.8513 4.86134 12.8502 4.83828C12.8491 4.81523 12.8384 4.79339 12.8202 4.77714L11.6613 3.73297C11.6422 3.71574 11.6162 3.70605 11.5891 3.70605C11.562 3.70605 11.536 3.71574 11.5169 3.73297L9.66971 5.39542C9.60154 5.45674 9.55019 5.53151 9.51976 5.61381C9.48942 5.69629 9.43814 5.77127 9.36999 5.83281C9.30185 5.89435 9.2187 5.94075 9.12716 5.96833C9.03567 5.99577 8.95251 6.04197 8.88425 6.10328L4.14709 10.3658C4.12794 10.383 4.11719 10.4064 4.11719 10.4308C4.11719 10.4551 4.12794 10.4785 4.14709 10.4958L5.30597 11.5388C5.32402 11.5552 5.34829 11.5648 5.37391 11.5658C5.39952 11.5667 5.4246 11.5589 5.4441 11.544C5.6786 11.3627 5.98052 11.2679 6.28941 11.2784C6.5983 11.2889 6.89136 11.4041 7.10994 11.6008C7.32851 11.7975 7.45646 12.0613 7.46817 12.3393C7.47989 12.6173 7.3745 12.889 7.17311 13.1001C7.15647 13.1176 7.14782 13.1402 7.14889 13.1632C7.14996 13.1863 7.16067 13.2081 7.17888 13.2244L8.33777 14.2674C8.35692 14.2846 8.3829 14.2943 8.40998 14.2943C8.43707 14.2943 8.46304 14.2846 8.4822 14.2674L13.2196 10.0039C13.2877 9.9425 13.3391 9.86766 13.3696 9.78531C13.3999 9.70283 13.4512 9.62785 13.5193 9.56631C13.5875 9.50478 13.6706 9.45838 13.7622 9.43079C13.8536 9.4034 13.9367 9.35719 14.0048 9.29584L15.852 7.63338C15.8711 7.61614 15.8819 7.59276 15.8819 7.56839C15.8819 7.54401 15.8711 7.52063 15.852 7.50339L14.6931 6.4604C14.6751 6.44401 14.6508 6.43437 14.6252 6.4334C14.5996 6.43244 14.5745 6.44022 14.555 6.4552C14.3208 6.63656 14.0191 6.73167 13.7103 6.72151C13.4015 6.71134 13.1084 6.59665 12.8895 6.40037Z" stroke="white" stroke-miterlimit="10"/>
</svg>
