<svg width="28" height="28" viewBox="0 0 28 28" fill="none" xmlns="http://www.w3.org/2000/svg">
<path d="M14.0052 0.667969C21.3692 0.667969 27.3386 6.6373 27.3386 14.0013C27.3386 21.3653 21.3692 27.3346 14.0052 27.3346C11.6489 27.3384 9.3341 26.7149 7.29856 25.528L0.677227 27.3346L2.47989 20.7106C1.29202 18.6745 0.667957 16.3586 0.671894 14.0013C0.671894 6.6373 6.64123 0.667969 14.0052 0.667969ZM9.46123 7.73464L9.19456 7.7453C9.02192 7.75582 8.8532 7.80117 8.69856 7.87864C8.55392 7.96054 8.42189 8.06293 8.30656 8.18264C8.14656 8.3333 8.05589 8.46397 7.95856 8.59064C7.46539 9.23184 7.19986 10.0191 7.20389 10.828C7.20656 11.4813 7.37723 12.1173 7.64389 12.712C8.18923 13.9146 9.08656 15.188 10.2706 16.368C10.5559 16.652 10.8359 16.9373 11.1372 17.2026C12.6084 18.4979 14.3616 19.432 16.2572 19.9306L17.0146 20.0466C17.2612 20.06 17.5079 20.0413 17.7559 20.0293C18.1442 20.0093 18.5234 19.9041 18.8666 19.7213C19.0412 19.6314 19.2116 19.5335 19.3772 19.428C19.3772 19.428 19.4346 19.3906 19.5439 19.308C19.7239 19.1746 19.8346 19.08 19.9839 18.924C20.0946 18.8093 20.1906 18.6746 20.2639 18.5213C20.3679 18.304 20.4719 17.8893 20.5146 17.544C20.5466 17.28 20.5372 17.136 20.5332 17.0466C20.5279 16.904 20.4092 16.756 20.2799 16.6933L19.5039 16.3453C19.5039 16.3453 18.3439 15.84 17.6346 15.5173C17.5603 15.4849 17.4808 15.4664 17.3999 15.4626C17.3087 15.4533 17.2165 15.4635 17.1296 15.4927C17.0426 15.5219 16.963 15.5694 16.8959 15.632C16.8892 15.6293 16.7999 15.7053 15.8359 16.8733C15.7806 16.9477 15.7043 17.0038 15.617 17.0347C15.5296 17.0656 15.435 17.0697 15.3452 17.0466C15.2584 17.0233 15.1733 16.9939 15.0906 16.9586C14.9252 16.8893 14.8679 16.8626 14.7546 16.8146C13.9893 16.4807 13.2808 16.0295 12.6546 15.4773C12.4866 15.3306 12.3306 15.1706 12.1706 15.016C11.646 14.5136 11.1889 13.9453 10.8106 13.3253L10.7319 13.1986C10.6754 13.1135 10.6297 13.0217 10.5959 12.9253C10.5452 12.7293 10.6772 12.572 10.6772 12.572C10.6772 12.572 11.0012 12.2173 11.1519 12.0253C11.2986 11.8386 11.4226 11.6573 11.5026 11.528C11.6599 11.2746 11.7092 11.0146 11.6266 10.8133C11.2532 9.9013 10.8666 8.9933 10.4692 8.09197C10.3906 7.9133 10.1572 7.7853 9.94523 7.75997C9.87323 7.75197 9.80123 7.74397 9.72923 7.73864C9.55017 7.72974 9.37074 7.73152 9.19189 7.74397L9.46123 7.73464Z" fill="#FC6435"/>
</svg>
